<?xml version="1.0" encoding="utf-8" ?>
<svg baseProfile="full" height="400" version="1.1" width="400" xmlns="http://www.w3.org/2000/svg" xmlns:ev="http://www.w3.org/2001/xml-events" xmlns:xlink="http://www.w3.org/1999/xlink"><defs /><g fill="none" fill-opacity="0" id="uno"><path d="M 272.106214,230.607272 a 78.333333,78.333333 0.000000 0,0 -62.559782,-108.356720" fill="none" stroke="green" stroke-width="15.000000000000002" /><path d="M 134.445335,249.398983 a 82.083333,82.083333 0.000000 0,0 131.109330,0.000000" fill="none" stroke="green" stroke-width="22.500000000000004" /><path d="M 190.758241,124.731917 a 75.833333,75.833333 0.000000 0,0 -60.563193,104.898527" fill="none" stroke="green" stroke-width="10.000000000000002" /><path d="M 155.255354,174.166667 a 51.666667,51.666667 0.000000 0,1 89.489292,0.000000" fill="none" id="id56" stroke-width="0" /><path d="M 211.169325,109.033145 a 91.650000,91.650000 0.000000 0,1 73.194944,126.777363" fill="none" id="id57" stroke="green" stroke-width="0" /><path d="M 118.056669,261.748729 a 102.604167,102.604167 0.000000 0,0 163.886662,0.000000" fill="none" id="id58" stroke="green" stroke-width="0" /><path d="M 118.328207,234.667619 a 88.725000,88.725000 0.000000 0,1 70.858936,-122.731277" fill="none" id="id59" stroke="green" stroke-width="0" /><path d="M 260.087775 99.997148 307.299599 21.423479" fill="none" id="id60" stroke-width="0" /><path d="M 302.038966 143.438878 382.212439 98.997996" fill="none" id="id61" stroke-width="0" /><path d="M 316.648898 202.036114 408.301603 203.635918" fill="none" id="id62" stroke-width="0" /><path d="M 273.420712 290.667029 331.108415 361.905409" fill="none" id="id63" stroke-width="0" /><path d="M 237.982951 310.310500 267.826699 396.983037" fill="none" id="id64" stroke-width="0" /><path d="M 197.963886 316.648898 196.364082 408.301603" fill="none" id="id65" stroke-width="0" /><path d="M 132.173301 396.983037 162.017049 310.310500" fill="none" id="id66" stroke-width="0" /><path d="M 68.891585 361.905409 126.579288 290.667029" fill="none" id="id67" stroke-width="0" /><path d="M -6.780448 225.389447 84.202949 214.218090" fill="none" id="id68" stroke-width="0" /><path d="M 0.769843 139.089228 88.431112 165.889968" fill="none" id="id69" stroke-width="0" /><path d="M 42.768837 63.321036 111.950549 123.459780" fill="none" id="id70" stroke-width="0" /><path d="M 111.954529 11.185878 150.694536 94.264092" fill="none" id="id71" stroke-width="0" /></g><circle cx="200.0" cy="200.0" fill="green" r="25.000000000000004" stroke="none" /><circle cx="258.33333333333337" cy="98.96370289181549" fill="green" r="1.666666666666667" stroke="none" /><circle cx="301.0362971081845" cy="141.66666666666669" fill="green" r="3.333333333333334" stroke="none" /><circle cx="316.6666666666667" cy="200.0" fill="green" r="6.666666666666668" stroke="none" /><circle cx="274.9918877967629" cy="289.3718516972141" fill="green" r="8.333333333333334" stroke="none" /><circle cx="239.90235005466135" cy="309.63080575835596" fill="green" r="7.500000000000001" stroke="none" /><circle cx="200.0" cy="316.6666666666667" fill="green" r="6.666666666666668" stroke="none" /><circle cx="160.09764994533865" cy="309.630805758356" fill="green" r="8.333333333333334" stroke="none" /><circle cx="125.00811220323709" cy="289.3718516972141" fill="green" r="6.666666666666668" stroke="none" /><circle cx="83.97244554036811" cy="212.19498738122627" fill="green" r="4.166666666666667" stroke="none" /><circle cx="89.0434064322321" cy="163.94801732292277" fill="green" r="5.0" stroke="none" /><circle cx="113.29977036097067" cy="121.93476259146654" fill="green" r="1.666666666666667" stroke="none" /><circle cx="152.54739164115665" cy="93.41969660836321" fill="green" r="2.5" stroke="none" /><text style="font-size:11px; font-family:Arial; font-weight:bold"><textPath startOffset="15%" xlink:href="#id56">Vulnerabilidad</textPath></text><text style="font-size:10px; font-family:Arial; font-weight:bold"><textPath startOffset="33%" xlink:href="#id57">Exposici贸n</textPath><textPath startOffset="33%" xlink:href="#id58">Resiliencia</textPath><textPath startOffset="33%" xlink:href="#id59">Susceptibilidad</textPath></text><text style="font-size:8px; font-family:Arial; font-weight:bold"><textPath startOffset="13%" xlink:href="#id60">Expocisi贸n A</textPath><textPath startOffset="13%" xlink:href="#id61">Expocisi贸n B</textPath><textPath startOffset="13%" xlink:href="#id62">Expocisi贸n C</textPath><textPath startOffset="13%" xlink:href="#id63">Resiliencia A</textPath><textPath startOffset="13%" xlink:href="#id64">Resiliencia B</textPath><textPath startOffset="13%" xlink:href="#id65">Resiliencia C</textPath><textPath startOffset="13%" xlink:href="#id66">Resiliencia D</textPath><textPath startOffset="13%" xlink:href="#id67">Resiliencia E</textPath><textPath startOffset="13%" xlink:href="#id68">Susceptibilidad A</textPath><textPath startOffset="13%" xlink:href="#id69">Susceptibilidad B</textPath><textPath startOffset="13%" xlink:href="#id70">Susceptibilidad C</textPath><textPath startOffset="13%" xlink:href="#id71">Susceptibilidad D</textPath></text></svg>