<?xml version="1.0" encoding="utf-8" ?>
<svg baseProfile="full" height="400" version="1.1" width="400" xmlns="http://www.w3.org/2000/svg" xmlns:ev="http://www.w3.org/2001/xml-events" xmlns:xlink="http://www.w3.org/1999/xlink"><defs /><g fill="none" fill-opacity="0" id="uno"><path d="M 273.256845,231.095686 a 79.583333,79.583333 0.000000 0,0 -63.558076,-110.085817" fill="none" stroke="green" stroke-width="17.5" /><path d="M 140.435102,244.885370 a 74.583333,74.583333 0.000000 0,0 119.129797,0.000000" fill="none" stroke="green" stroke-width="7.500000000000001" /><path d="M 190.148895,119.769186 a 80.833333,80.833333 0.000000 0,0 -64.556370,111.814913" fill="none" stroke="green" stroke-width="20.000000000000004" /><path d="M 155.255354,174.166667 a 51.666667,51.666667 0.000000 0,1 89.489292,0.000000" fill="none" id="id72" stroke-width="0" /><path d="M 211.347559,107.581546 a 93.112500,93.112500 0.000000 0,1 74.362949,128.800406" fill="none" id="id73" stroke="green" stroke-width="0" /><path d="M 125.543877,256.106713 a 93.229167,93.229167 0.000000 0,0 148.912246,0.000000" fill="none" id="id74" stroke="green" stroke-width="0" /><path d="M 112.943253,236.953396 a 94.575000,94.575000 0.000000 0,1 75.530953,-130.823449" fill="none" id="id75" stroke="green" stroke-width="0" /><path d="M 260.087775 99.997148 307.299599 21.423479" fill="none" id="id76" stroke-width="0" /><path d="M 302.038966 143.438878 382.212439 98.997996" fill="none" id="id77" stroke-width="0" /><path d="M 316.648898 202.036114 408.301603 203.635918" fill="none" id="id78" stroke-width="0" /><path d="M 273.420712 290.667029 331.108415 361.905409" fill="none" id="id79" stroke-width="0" /><path d="M 237.982951 310.310500 267.826699 396.983037" fill="none" id="id80" stroke-width="0" /><path d="M 197.963886 316.648898 196.364082 408.301603" fill="none" id="id81" stroke-width="0" /><path d="M 132.173301 396.983037 162.017049 310.310500" fill="none" id="id82" stroke-width="0" /><path d="M 68.891585 361.905409 126.579288 290.667029" fill="none" id="id83" stroke-width="0" /><path d="M -6.780448 225.389447 84.202949 214.218090" fill="none" id="id84" stroke-width="0" /><path d="M 0.769843 139.089228 88.431112 165.889968" fill="none" id="id85" stroke-width="0" /><path d="M 42.768837 63.321036 111.950549 123.459780" fill="none" id="id86" stroke-width="0" /><path d="M 111.954529 11.185878 150.694536 94.264092" fill="none" id="id87" stroke-width="0" /></g><circle cx="200.0" cy="200.0" fill="green" r="45.00000000000001" stroke="none" /><circle cx="258.33333333333337" cy="98.96370289181549" fill="green" r="5.0" stroke="none" /><circle cx="301.0362971081845" cy="141.66666666666669" fill="green" r="6.666666666666668" stroke="none" /><circle cx="316.6666666666667" cy="200.0" fill="green" r="5.833333333333333" stroke="none" /><circle cx="274.9918877967629" cy="289.3718516972141" fill="green" r="2.5" stroke="none" /><circle cx="239.90235005466135" cy="309.63080575835596" fill="green" r="1.666666666666667" stroke="none" /><circle cx="200.0" cy="316.6666666666667" fill="green" r="3.333333333333334" stroke="none" /><circle cx="160.09764994533865" cy="309.630805758356" fill="green" r="1.666666666666667" stroke="none" /><circle cx="125.00811220323709" cy="289.3718516972141" fill="green" r="3.333333333333334" stroke="none" /><circle cx="83.97244554036811" cy="212.19498738122627" fill="green" r="5.833333333333333" stroke="none" /><circle cx="89.0434064322321" cy="163.94801732292277" fill="green" r="7.500000000000001" stroke="none" /><circle cx="113.29977036097067" cy="121.93476259146654" fill="green" r="5.0" stroke="none" /><circle cx="152.54739164115665" cy="93.41969660836321" fill="green" r="8.333333333333334" stroke="none" /><text style="font-size:11px; font-family:Arial; font-weight:bold"><textPath startOffset="15%" xlink:href="#id72">Vulnerabilidad</textPath></text><text style="font-size:10px; font-family:Arial; font-weight:bold"><textPath startOffset="33%" xlink:href="#id73">Exposici贸n</textPath><textPath startOffset="33%" xlink:href="#id74">Resiliencia</textPath><textPath startOffset="33%" xlink:href="#id75">Susceptibilidad</textPath></text><text style="font-size:8px; font-family:Arial; font-weight:bold"><textPath startOffset="13%" xlink:href="#id76">Expocisi贸n A</textPath><textPath startOffset="13%" xlink:href="#id77">Expocisi贸n B</textPath><textPath startOffset="13%" xlink:href="#id78">Expocisi贸n C</textPath><textPath startOffset="13%" xlink:href="#id79">Resiliencia A</textPath><textPath startOffset="13%" xlink:href="#id80">Resiliencia B</textPath><textPath startOffset="13%" xlink:href="#id81">Resiliencia C</textPath><textPath startOffset="13%" xlink:href="#id82">Resiliencia D</textPath><textPath startOffset="13%" xlink:href="#id83">Resiliencia E</textPath><textPath startOffset="13%" xlink:href="#id84">Susceptibilidad A</textPath><textPath startOffset="13%" xlink:href="#id85">Susceptibilidad B</textPath><textPath startOffset="13%" xlink:href="#id86">Susceptibilidad C</textPath><textPath startOffset="13%" xlink:href="#id87">Susceptibilidad D</textPath></text></svg>