<?xml version="1.0" encoding="utf-8" ?>
<svg baseProfile="full" height="400" version="1.1" width="400" xmlns="http://www.w3.org/2000/svg" xmlns:ev="http://www.w3.org/2001/xml-events" xmlns:xlink="http://www.w3.org/1999/xlink"><defs /><g fill="none" fill-opacity="0" id="uno"><path d="M 272.106214,230.607272 a 78.333333,78.333333 0.000000 0,0 -62.559782,-108.356720" fill="none" stroke="green" stroke-width="15.000000000000002" /><path d="M 134.445335,249.398983 a 82.083333,82.083333 0.000000 0,0 131.109330,0.000000" fill="none" stroke="green" stroke-width="22.500000000000004" /><path d="M 190.758241,124.731917 a 75.833333,75.833333 0.000000 0,0 -60.563193,104.898527" fill="none" stroke="green" stroke-width="10.000000000000002" /></g><circle cx="200.0" cy="200.0" fill="green" r="25.000000000000004" stroke="none" /><circle cx="258.33333333333337" cy="98.96370289181549" fill="green" r="1.666666666666667" stroke="none" /><circle cx="301.0362971081845" cy="141.66666666666669" fill="green" r="3.333333333333334" stroke="none" /><circle cx="316.6666666666667" cy="200.0" fill="green" r="6.666666666666668" stroke="none" /><circle cx="274.9918877967629" cy="289.3718516972141" fill="green" r="8.333333333333334" stroke="none" /><circle cx="239.90235005466135" cy="309.63080575835596" fill="green" r="7.500000000000001" stroke="none" /><circle cx="200.0" cy="316.6666666666667" fill="green" r="6.666666666666668" stroke="none" /><circle cx="160.09764994533865" cy="309.630805758356" fill="green" r="8.333333333333334" stroke="none" /><circle cx="125.00811220323709" cy="289.3718516972141" fill="green" r="6.666666666666668" stroke="none" /><circle cx="83.97244554036811" cy="212.19498738122627" fill="green" r="4.166666666666667" stroke="none" /><circle cx="89.0434064322321" cy="163.94801732292277" fill="green" r="5.0" stroke="none" /><circle cx="113.29977036097067" cy="121.93476259146654" fill="green" r="1.666666666666667" stroke="none" /><circle cx="152.54739164115665" cy="93.41969660836321" fill="green" r="2.5" stroke="none" /></svg>