<?xml version="1.0" encoding="utf-8" ?>
<svg baseProfile="full" height="400" version="1.1" width="400" xmlns="http://www.w3.org/2000/svg" xmlns:ev="http://www.w3.org/2001/xml-events" xmlns:xlink="http://www.w3.org/1999/xlink"><defs /><g fill="none" fill-opacity="0" id="uno"><path d="M 155.255354,174.166667 a 51.666667,51.666667 0.000000 0,1 89.489292,0.000000" fill="none" id="id33" stroke-width="0" /><path d="M 208.921408,102.909020 a 97.500000,97.500000 0.000000 0,1 88.169573,88.169573" fill="none" id="id34" stroke="green" stroke-width="0" /><path d="M 208.816562,295.949954 a 96.354167,96.354167 0.000000 0,0 87.133392,-87.133392" fill="none" id="id35" stroke="green" stroke-width="0" /><path d="M 107.161936,208.530620 a 93.229167,93.229167 0.000000 0,0 84.307444,84.307444" fill="none" id="id36" stroke="green" stroke-width="0" /><path d="M 108.734478,191.613877 a 91.650000,91.650000 0.000000 0,1 82.879398,-82.879398" fill="none" id="id37" stroke="green" stroke-width="0" /><path d="M 237.982951 89.689500 267.826699 3.016963" fill="none" id="id38" stroke-width="0" /><path d="M 270.211753 106.825857 325.378130 33.617602" fill="none" id="id39" stroke-width="0" /><path d="M 295.567739 133.082749 370.656676 80.504909" fill="none" id="id40" stroke-width="0" /><path d="M 311.568888 165.889968 399.230157 139.089228" fill="none" id="id41" stroke-width="0" /><path d="M 310.310500 237.982951 396.983037 267.826699" fill="none" id="id42" stroke-width="0" /><path d="M 293.174143 270.211753 366.382398 325.378130" fill="none" id="id43" stroke-width="0" /><path d="M 266.917251 295.567739 319.495091 370.656676" fill="none" id="id44" stroke-width="0" /><path d="M 234.110032 311.568888 260.910772 399.230157" fill="none" id="id45" stroke-width="0" /><path d="M 149.599605 402.144943 171.775779 313.201168" fill="none" id="id46" stroke-width="0" /><path d="M 98.997996 382.212439 143.438878 302.038966" fill="none" id="id47" stroke-width="0" /><path d="M 55.279506 349.862458 118.956523 283.922977" fill="none" id="id48" stroke-width="0" /><path d="M 21.423479 307.299599 99.997148 260.087775" fill="none" id="id49" stroke-width="0" /><path d="M -0.262853 257.424449 87.852802 232.157692" fill="none" id="id50" stroke-width="0" /><path d="M -2.144943 149.599605 86.798832 171.775779" fill="none" id="id51" stroke-width="0" /><path d="M 17.787561 98.997996 97.961034 143.438878" fill="none" id="id52" stroke-width="0" /><path d="M 50.137542 55.279506 116.077023 118.956523" fill="none" id="id53" stroke-width="0" /><path d="M 92.700401 21.423479 139.912225 99.997148" fill="none" id="id54" stroke-width="0" /><path d="M 142.575551 -0.262853 167.842308 87.852802" fill="none" id="id55" stroke-width="0" /></g><text style="font-size:11px; font-family:Arial; font-weight:bold"><textPath startOffset="15%" xlink:href="#id33">Sostenibilidad</textPath></text><text style="font-size:10px; font-family:Arial; font-weight:bold"><textPath startOffset="33%" xlink:href="#id34">Social</textPath><textPath startOffset="33%" xlink:href="#id35">Económica</textPath><textPath startOffset="33%" xlink:href="#id36">Ambiental</textPath><textPath startOffset="33%" xlink:href="#id37">Gobernanza</textPath></text><text style="font-size:8px; font-family:Arial; font-weight:bold"><textPath startOffset="13%" xlink:href="#id38">Social 1</textPath><textPath startOffset="13%" xlink:href="#id39">Social 2</textPath><textPath startOffset="13%" xlink:href="#id40">Social 3</textPath><textPath startOffset="13%" xlink:href="#id41">Social 4</textPath><textPath startOffset="13%" xlink:href="#id42">Económica 1</textPath><textPath startOffset="13%" xlink:href="#id43">Económica 2</textPath><textPath startOffset="13%" xlink:href="#id44">Económica 3</textPath><textPath startOffset="13%" xlink:href="#id45">Económica 4</textPath><textPath startOffset="13%" xlink:href="#id46">Ambiental 1</textPath><textPath startOffset="13%" xlink:href="#id47">Ambiental 2</textPath><textPath startOffset="13%" xlink:href="#id48">Ambiental 3</textPath><textPath startOffset="13%" xlink:href="#id49">Ambiental 4</textPath><textPath startOffset="13%" xlink:href="#id50">Ambiental 5</textPath><textPath startOffset="13%" xlink:href="#id51">Gobernanza 1</textPath><textPath startOffset="13%" xlink:href="#id52">Gobernanza 2</textPath><textPath startOffset="13%" xlink:href="#id53">Gobernanza 3</textPath><textPath startOffset="13%" xlink:href="#id54">Gobernanza 4</textPath><textPath startOffset="13%" xlink:href="#id55">Gobernanza 5</textPath></text></svg>