<?xml version="1.0" encoding="utf-8" ?>
<svg baseProfile="full" height="400" version="1.1" width="400" xmlns="http://www.w3.org/2000/svg" xmlns:ev="http://www.w3.org/2001/xml-events" xmlns:xlink="http://www.w3.org/1999/xlink"><defs /><g fill="none" fill-opacity="0" id="uno"><path d="M 155.255354,174.166667 a 51.666667,51.666667 0.000000 0,1 89.489292,0.000000" fill="none" id="id1" stroke-width="0" /><path d="M 211.169325,109.033145 a 91.650000,91.650000 0.000000 0,1 73.194944,126.777363" fill="none" id="id2" stroke="green" stroke-width="0" /><path d="M 118.056669,261.748729 a 102.604167,102.604167 0.000000 0,0 163.886662,0.000000" fill="none" id="id3" stroke="green" stroke-width="0" /><path d="M 118.328207,234.667619 a 88.725000,88.725000 0.000000 0,1 70.858936,-122.731277" fill="none" id="id4" stroke="green" stroke-width="0" /><path d="M 260.087775 99.997148 307.299599 21.423479" fill="none" id="id5" stroke-width="0" /><path d="M 302.038966 143.438878 382.212439 98.997996" fill="none" id="id6" stroke-width="0" /><path d="M 316.648898 202.036114 408.301603 203.635918" fill="none" id="id7" stroke-width="0" /><path d="M 273.420712 290.667029 331.108415 361.905409" fill="none" id="id8" stroke-width="0" /><path d="M 237.982951 310.310500 267.826699 396.983037" fill="none" id="id9" stroke-width="0" /><path d="M 197.963886 316.648898 196.364082 408.301603" fill="none" id="id10" stroke-width="0" /><path d="M 132.173301 396.983037 162.017049 310.310500" fill="none" id="id11" stroke-width="0" /><path d="M 68.891585 361.905409 126.579288 290.667029" fill="none" id="id12" stroke-width="0" /><path d="M -6.780448 225.389447 84.202949 214.218090" fill="none" id="id13" stroke-width="0" /><path d="M 0.769843 139.089228 88.431112 165.889968" fill="none" id="id14" stroke-width="0" /><path d="M 42.768837 63.321036 111.950549 123.459780" fill="none" id="id15" stroke-width="0" /><path d="M 111.954529 11.185878 150.694536 94.264092" fill="none" id="id16" stroke-width="0" /></g><text style="font-size:11px; font-family:Arial; font-weight:bold"><textPath startOffset="15%" xlink:href="#id1">Vulnerabilidad</textPath></text><text style="font-size:10px; font-family:Arial; font-weight:bold"><textPath startOffset="33%" xlink:href="#id2">Exposici贸n</textPath><textPath startOffset="33%" xlink:href="#id3">Resiliencia</textPath><textPath startOffset="33%" xlink:href="#id4">Susceptibilidad</textPath></text><text style="font-size:8px; font-family:Arial; font-weight:bold"><textPath startOffset="13%" xlink:href="#id5">Expocisi贸n A</textPath><textPath startOffset="13%" xlink:href="#id6">Expocisi贸n B</textPath><textPath startOffset="13%" xlink:href="#id7">Expocisi贸n C</textPath><textPath startOffset="13%" xlink:href="#id8">Resiliencia A</textPath><textPath startOffset="13%" xlink:href="#id9">Resiliencia B</textPath><textPath startOffset="13%" xlink:href="#id10">Resiliencia C</textPath><textPath startOffset="13%" xlink:href="#id11">Resiliencia D</textPath><textPath startOffset="13%" xlink:href="#id12">Resiliencia E</textPath><textPath startOffset="13%" xlink:href="#id13">Susceptibilidad A</textPath><textPath startOffset="13%" xlink:href="#id14">Susceptibilidad B</textPath><textPath startOffset="13%" xlink:href="#id15">Susceptibilidad C</textPath><textPath startOffset="13%" xlink:href="#id16">Susceptibilidad D</textPath></text></svg>