<?xml version="1.0" encoding="utf-8" ?>
<svg baseProfile="full" height="400" version="1.1" width="400" xmlns="http://www.w3.org/2000/svg" xmlns:ev="http://www.w3.org/2001/xml-events" xmlns:xlink="http://www.w3.org/1999/xlink"><defs /><g fill="none" fill-opacity="0" id="uno"><path d="M 155.255354,174.166667 a 51.666667,51.666667 0.000000 0,1 89.489292,0.000000" fill="none" id="id17" stroke-width="0" /><path d="M 211.347559,107.581546 a 93.112500,93.112500 0.000000 0,1 74.362949,128.800406" fill="none" id="id18" stroke="green" stroke-width="0" /><path d="M 125.543877,256.106713 a 93.229167,93.229167 0.000000 0,0 148.912246,0.000000" fill="none" id="id19" stroke="green" stroke-width="0" /><path d="M 112.943253,236.953396 a 94.575000,94.575000 0.000000 0,1 75.530953,-130.823449" fill="none" id="id20" stroke="green" stroke-width="0" /><path d="M 260.087775 99.997148 307.299599 21.423479" fill="none" id="id21" stroke-width="0" /><path d="M 302.038966 143.438878 382.212439 98.997996" fill="none" id="id22" stroke-width="0" /><path d="M 316.648898 202.036114 408.301603 203.635918" fill="none" id="id23" stroke-width="0" /><path d="M 273.420712 290.667029 331.108415 361.905409" fill="none" id="id24" stroke-width="0" /><path d="M 237.982951 310.310500 267.826699 396.983037" fill="none" id="id25" stroke-width="0" /><path d="M 197.963886 316.648898 196.364082 408.301603" fill="none" id="id26" stroke-width="0" /><path d="M 132.173301 396.983037 162.017049 310.310500" fill="none" id="id27" stroke-width="0" /><path d="M 68.891585 361.905409 126.579288 290.667029" fill="none" id="id28" stroke-width="0" /><path d="M -6.780448 225.389447 84.202949 214.218090" fill="none" id="id29" stroke-width="0" /><path d="M 0.769843 139.089228 88.431112 165.889968" fill="none" id="id30" stroke-width="0" /><path d="M 42.768837 63.321036 111.950549 123.459780" fill="none" id="id31" stroke-width="0" /><path d="M 111.954529 11.185878 150.694536 94.264092" fill="none" id="id32" stroke-width="0" /></g><text style="font-size:11px; font-family:Arial; font-weight:bold"><textPath startOffset="15%" xlink:href="#id17">Vulnerabilidad</textPath></text><text style="font-size:10px; font-family:Arial; font-weight:bold"><textPath startOffset="33%" xlink:href="#id18">Exposici贸n</textPath><textPath startOffset="33%" xlink:href="#id19">Resiliencia</textPath><textPath startOffset="33%" xlink:href="#id20">Susceptibilidad</textPath></text><text style="font-size:8px; font-family:Arial; font-weight:bold"><textPath startOffset="13%" xlink:href="#id21">Expocisi贸n A</textPath><textPath startOffset="13%" xlink:href="#id22">Expocisi贸n B</textPath><textPath startOffset="13%" xlink:href="#id23">Expocisi贸n C</textPath><textPath startOffset="13%" xlink:href="#id24">Resiliencia A</textPath><textPath startOffset="13%" xlink:href="#id25">Resiliencia B</textPath><textPath startOffset="13%" xlink:href="#id26">Resiliencia C</textPath><textPath startOffset="13%" xlink:href="#id27">Resiliencia D</textPath><textPath startOffset="13%" xlink:href="#id28">Resiliencia E</textPath><textPath startOffset="13%" xlink:href="#id29">Susceptibilidad A</textPath><textPath startOffset="13%" xlink:href="#id30">Susceptibilidad B</textPath><textPath startOffset="13%" xlink:href="#id31">Susceptibilidad C</textPath><textPath startOffset="13%" xlink:href="#id32">Susceptibilidad D</textPath></text></svg>